<svg width="20" height="20" viewBox="0 0 20 20" fill="none" xmlns="http://www.w3.org/2000/svg">
<path d="M3.72323 8.55482C3.7298 8.61432 3.73649 8.67449 3.74325 8.73524L3.84795 9.67757C3.92144 10.3393 3.98517 10.9132 4.09637 11.3712C4.216 11.8639 4.4132 12.3281 4.82445 12.6962C5.2357 13.0642 5.71878 13.209 6.22167 13.2734C6.68914 13.3334 7.26656 13.3333 7.93241 13.3333H12.3936C12.8501 13.3333 13.253 13.3333 13.5894 13.2992C13.954 13.2622 14.3082 13.1802 14.6488 12.9751C14.9894 12.77 15.2276 12.4953 15.4309 12.1905C15.6185 11.9092 15.807 11.5531 16.0205 11.1497L18.0951 7.23111C18.8312 5.84071 17.8233 4.16664 16.25 4.16664H7.83239C7.01339 4.1666 6.31273 4.16656 5.75813 4.24405C5.47744 4.28327 5.20239 4.34606 4.9444 4.45311L4.82453 3.37426C4.71651 2.40211 3.89481 1.66666 2.91669 1.66666H2.50002C2.03979 1.66666 1.66669 2.03975 1.66669 2.49999C1.66669 2.96022 2.03979 3.33332 2.50002 3.33332H2.91669C3.04556 3.33332 3.15382 3.43022 3.16805 3.55831L3.72323 8.55482Z" fill="#202E99"/>
<path fill-rule="evenodd" clip-rule="evenodd" d="M11.6667 16.25C11.6667 15.0994 12.5994 14.1667 13.75 14.1667C14.9006 14.1667 15.8334 15.0994 15.8334 16.25C15.8334 17.4006 14.9006 18.3333 13.75 18.3333C12.5994 18.3333 11.6667 17.4006 11.6667 16.25Z" fill="#202E99"/>
<path fill-rule="evenodd" clip-rule="evenodd" d="M4.16669 16.25C4.16669 15.0994 5.09943 14.1667 6.25002 14.1667C7.40061 14.1667 8.33335 15.0994 8.33335 16.25C8.33335 17.4006 7.40061 18.3333 6.25002 18.3333C5.09943 18.3333 4.16669 17.4006 4.16669 16.25Z" fill="#202E99"/>
</svg>
