<svg width="30" height="30" viewBox="0 0 30 30" fill="none" xmlns="http://www.w3.org/2000/svg">
<g clip-path="url(#clip0_145_133)">
<path fill-rule="evenodd" clip-rule="evenodd" d="M21.2315 17.1C21.599 17.4656 21.599 18.0656 21.2315 18.4313C20.8659 18.7969 20.2715 18.7969 19.905 18.4313L17.8059 16.3313L15.6796 18.4593C15.3102 18.8249 14.7112 18.8249 14.3418 18.4593C13.9724 18.0843 13.9724 17.4844 14.3418 17.1187L16.4681 14.9906L14.369 12.9C14.0025 12.5344 14.0025 11.9343 14.369 11.5687C14.7356 11.2031 15.33 11.2031 15.6956 11.5687L17.7947 13.6687L19.9509 11.5125C20.3212 11.1469 20.9193 11.1469 21.2887 11.5125C21.659 11.8875 21.659 12.4781 21.2887 12.8531L19.1325 15.0094L21.2315 17.1ZM26.2462 4.68749H9.42279C9.16029 4.66874 8.89214 4.75314 8.69152 4.95001L0.267121 14.2687C0.0693082 14.4656 -0.0159924 14.7281 -0.00192993 14.9812C-0.0159924 15.2437 0.0693082 15.5062 0.267121 15.7031L8.69152 25.0218C8.87527 25.1999 9.11527 25.2937 9.35527 25.2937V25.3125H26.2462C28.319 25.3125 30 23.6344 30 21.5625V8.43749C30 6.36561 28.319 4.68749 26.2462 4.68749Z" fill="black"/>
</g>
<defs>
<clipPath id="clip0_145_133">
<rect width="30" height="30" fill="white"/>
</clipPath>
</defs>
</svg>
