<svg width="84" height="84" viewBox="0 0 84 84" fill="none" xmlns="http://www.w3.org/2000/svg">
<g clip-path="url(#clip0_41_351)">
<path d="M36.75 26.25H47.25V34.125C47.25 34.8212 46.9734 35.4889 46.4812 35.9812C45.9889 36.4734 45.3212 36.75 44.625 36.75H39.375C38.6788 36.75 38.0111 36.4734 37.5188 35.9812C37.0266 35.4889 36.75 34.8212 36.75 34.125V26.25Z" fill="#77ACF1"/>
<path d="M52.5 60.375H31.5C29.4114 60.375 27.4084 59.5453 25.9315 58.0685C24.4547 56.5916 23.625 54.5886 23.625 52.5V31.5C23.625 29.4114 24.4547 27.4084 25.9315 25.9315C27.4084 24.4547 29.4114 23.625 31.5 23.625H52.5C54.5886 23.625 56.5916 24.4547 58.0685 25.9315C59.5453 27.4084 60.375 29.4114 60.375 31.5V52.5C60.375 54.5886 59.5453 56.5916 58.0685 58.0685C56.5916 59.5453 54.5886 60.375 52.5 60.375ZM31.5 28.875C30.8038 28.875 30.1361 29.1516 29.6438 29.6438C29.1516 30.1361 28.875 30.8038 28.875 31.5V52.5C28.875 53.1962 29.1516 53.8639 29.6438 54.3562C30.1361 54.8484 30.8038 55.125 31.5 55.125H52.5C53.1962 55.125 53.8639 54.8484 54.3562 54.3562C54.8484 53.8639 55.125 53.1962 55.125 52.5V31.5C55.125 30.8038 54.8484 30.1361 54.3562 29.6438C53.8639 29.1516 53.1962 28.875 52.5 28.875H31.5Z" fill="#202E99"/>
<path d="M39.375 49.875H36.75C36.0538 49.875 35.3861 49.5984 34.8938 49.1062C34.4016 48.6139 34.125 47.9462 34.125 47.25C34.125 46.5538 34.4016 45.8861 34.8938 45.3938C35.3861 44.9016 36.0538 44.625 36.75 44.625H39.375C40.0712 44.625 40.7389 44.9016 41.2312 45.3938C41.7234 45.8861 42 46.5538 42 47.25C42 47.9462 41.7234 48.6139 41.2312 49.1062C40.7389 49.5984 40.0712 49.875 39.375 49.875Z" fill="#202E99"/>
<path d="M78.75 63.6301L76.125 74.1301C76.0126 74.5791 75.7834 74.9905 75.4607 75.3224C75.138 75.6544 74.7332 75.895 74.2875 76.0201C74.0335 76.1024 73.7667 76.138 73.5 76.1251C73.1545 76.1271 72.8121 76.0608 72.4922 75.9302C72.1724 75.7996 71.8815 75.6071 71.6363 75.3638L69.7462 73.5001C67.588 75.4341 65.2297 77.1324 62.7113 78.5663L61.3725 79.2751C55.3935 82.3971 48.745 84.0186 42 84.0001C30.8609 84.0001 20.178 79.5751 12.3015 71.6985C4.42499 63.822 1.96391e-06 53.1391 1.96391e-06 42.0001C-0.00100692 38.7196 0.386696 35.4505 1.155 32.2613C1.3575 31.6327 1.78949 31.1035 2.36484 30.7793C2.94018 30.4551 3.6166 30.3596 4.25919 30.512C4.90179 30.6644 5.46334 31.0533 5.83187 31.6014C6.20039 32.1494 6.3488 32.8162 6.2475 33.4688C5.58644 36.2645 5.25171 39.1273 5.25 42.0001C5.24811 48.4289 6.93269 54.7457 10.1355 60.3199C13.3384 65.894 17.9475 70.5305 23.5026 73.7663C29.0577 77.0021 35.3644 78.7241 41.7931 78.7603C48.2218 78.7965 54.5476 77.1456 60.1387 73.9726L60.375 73.8151C62.3949 72.6597 64.2943 71.3055 66.045 69.7726L63.7613 67.4888C63.4238 67.1521 63.1845 66.7298 63.0688 66.2674C62.9532 65.8049 62.9657 65.3197 63.105 64.8638C63.23 64.4181 63.4707 64.0133 63.8026 63.6906C64.1346 63.3679 64.5459 63.1387 64.995 63.0263L75.495 60.4013C75.9441 60.2719 76.4195 60.2647 76.8723 60.3805C77.325 60.4963 77.7387 60.7309 78.0704 61.06C78.4022 61.3891 78.6402 61.8009 78.7596 62.2527C78.8791 62.7045 78.8758 63.18 78.75 63.6301Z" fill="#202E99"/>
<path d="M84 42C84.001 45.2805 83.6133 48.5495 82.845 51.7388C82.7064 52.3261 82.3697 52.8477 81.8916 53.2158C81.4135 53.584 80.8232 53.7762 80.22 53.76C80.0197 53.7874 79.8166 53.7874 79.6162 53.76C78.9421 53.598 78.3594 53.1758 77.9955 52.5856C77.6315 51.9954 77.5159 51.2852 77.6737 50.61C78.3674 47.7919 78.7286 44.9022 78.75 42C78.7519 35.5712 77.0673 29.2544 73.8644 23.6802C70.6616 18.106 66.0525 13.4696 60.4974 10.2338C54.9423 6.99794 48.6356 5.27597 42.2068 5.23979C35.7781 5.2036 29.4524 6.85446 23.8612 10.0275C21.7521 11.229 19.7729 12.6453 17.955 14.2538L20.2387 16.5113C20.5762 16.848 20.8155 17.2703 20.9311 17.7327C21.0467 18.1952 21.0342 18.6804 20.895 19.1363C20.77 19.582 20.5293 19.9868 20.1973 20.3095C19.8654 20.6322 19.4541 20.8614 19.005 20.9738L8.50498 23.5988L7.87498 23.625C7.52951 23.627 7.18705 23.5608 6.86722 23.4302C6.5474 23.2996 6.25651 23.1071 6.01123 22.8638C5.66926 22.5298 5.42496 22.1089 5.30468 21.6463C5.18441 21.1837 5.19272 20.697 5.32873 20.2388L7.95373 9.73879C8.0702 9.29453 8.30119 8.88862 8.62363 8.56157C8.94607 8.23453 9.34867 7.9978 9.79123 7.87504C10.2471 7.73577 10.7323 7.72327 11.1948 7.83888C11.6573 7.9545 12.0795 8.19386 12.4162 8.53129L14.2275 10.5C16.4028 8.58313 18.7689 6.8943 21.2887 5.46004C27.6781 1.83829 34.9056 -0.0446704 42.2499 -0.000965139C49.5943 0.0427401 56.7988 2.01158 63.1446 5.70911C69.4905 9.40665 74.7558 14.7036 78.4152 21.0715C82.0747 27.4394 84.0003 34.6555 84 42Z" fill="#202E99"/>
</g>
<defs>
<clipPath id="clip0_41_351">
<rect width="84" height="84" fill="white"/>
</clipPath>
</defs>
</svg>
