<svg width="40" height="40" viewBox="0 0 40 40" fill="none" xmlns="http://www.w3.org/2000/svg">
<path d="M20.1375 36.3913C29.1913 36.3913 36.5288 29.0525 36.5288 20C36.5288 10.9475 29.1913 3.60875 20.1375 3.60875C11.085 3.60875 3.74628 10.9475 3.74628 20C3.74628 29.0525 11.085 36.3913 20.1375 36.3913ZM20.1375 4.92C28.4525 4.92 35.2175 11.685 35.2175 20C35.2175 28.315 28.4525 35.08 20.1375 35.08C11.8213 35.08 5.05753 28.315 5.05753 20C5.05753 11.685 11.8213 4.92 20.1375 4.92Z" fill="black"/>
<path d="M21.1325 27.0463L22.06 27.9738L30.0325 20L22.06 12.0263L21.1325 12.9538L27.5225 19.3438H11.6138V20.655H27.5225L21.1325 27.0463Z" fill="black"/>
</svg>
