<svg width="46" height="60" viewBox="0 0 46 60" fill="none" xmlns="http://www.w3.org/2000/svg">
<path d="M28.2863 23.4263C27.8738 22.1888 26.1263 22.1888 25.7138 23.4263L23.295 30.69C22.763 32.2864 21.8666 33.7369 20.6767 34.9267C19.4869 36.1166 18.0364 37.013 16.44 37.545L9.17627 39.9637C8.90529 40.0527 8.66932 40.2249 8.50203 40.4559C8.33473 40.6869 8.24466 40.9648 8.24466 41.25C8.24466 41.5352 8.33473 41.8131 8.50203 42.0441C8.66932 42.2751 8.90529 42.4473 9.17627 42.5363L16.44 44.955C18.0364 45.487 19.4869 46.3834 20.6767 47.5733C21.8666 48.7631 22.763 50.2136 23.295 51.81L25.7138 59.0738C25.8027 59.3447 25.975 59.5807 26.2059 59.748C26.4369 59.9153 26.7148 60.0054 27 60.0054C27.2852 60.0054 27.5631 59.9153 27.7941 59.748C28.0251 59.5807 28.1973 59.3447 28.2863 59.0738L30.705 51.8138C31.2365 50.2167 32.1328 48.7654 33.3226 47.5749C34.5125 46.3844 35.9633 45.4874 37.56 44.955L44.8238 42.5363C46.0613 42.1238 46.0613 40.3762 44.8238 39.9637L37.5638 37.545C35.9667 37.0135 34.5154 36.1173 33.3249 34.9274C32.1344 33.7376 31.2374 32.2868 30.705 30.69L28.2863 23.4263Z" fill="#202E99"/>
<path d="M11.5236 3.90112C11.3849 4.00128 11.2813 4.1426 11.2275 4.305L9.77627 8.6625C9.45709 9.62053 8.91916 10.4911 8.20512 11.2051C7.49108 11.9191 6.62055 12.4571 5.66252 12.7763L1.30502 14.2275C1.14263 14.2813 1.00131 14.3849 0.901144 14.5235C0.800982 14.6622 0.74707 14.8289 0.74707 15C0.74707 15.1711 0.800982 15.3378 0.901144 15.4765C1.00131 15.6151 1.14263 15.7187 1.30502 15.7725L5.66252 17.2238C6.62055 17.5429 7.49108 18.0809 8.20512 18.7949C8.91916 19.5089 9.45709 20.3795 9.77627 21.3375L11.2275 25.695C11.2813 25.8574 11.3849 25.9987 11.5236 26.0989C11.6622 26.199 11.829 26.253 12 26.253C12.1711 26.253 12.3378 26.199 12.4765 26.0989C12.6152 25.9987 12.7187 25.8574 12.7725 25.695L14.2238 21.3375C14.543 20.3795 15.0809 19.5089 15.7949 18.7949C16.509 18.0809 17.3795 17.5429 18.3375 17.2238L22.695 15.7725C22.8574 15.7187 22.9987 15.6151 23.0989 15.4765C23.1991 15.3378 23.253 15.1711 23.253 15C23.253 14.8289 23.1991 14.6622 23.0989 14.5235C22.9987 14.3849 22.8574 14.2813 22.695 14.2275L18.3375 12.7763C16.395 12.1275 14.8725 10.605 14.2238 8.6625L12.7725 4.305C12.7187 4.1426 12.6152 4.00128 12.4765 3.90112C12.3378 3.80096 12.1711 3.74705 12 3.74705C11.829 3.74705 11.6622 3.80096 11.5236 3.90112Z" fill="#202E99"/>
<path d="M37.9347 0.106356C37.8427 0.171885 37.7733 0.264474 37.7363 0.37125V0.375L36.7725 3.27375C36.3413 4.57125 35.325 5.5875 34.0275 6.01875L31.125 6.98625C31.0182 7.02327 30.9257 7.09264 30.8601 7.18471C30.7946 7.27679 30.7594 7.38699 30.7594 7.5C30.7594 7.61301 30.7946 7.72321 30.8601 7.81529C30.9257 7.90736 31.0182 7.97673 31.125 8.01375L34.0238 8.98125C34.6632 9.19396 35.2442 9.55281 35.7207 10.0293C36.1972 10.5058 36.5561 11.0868 36.7688 11.7263L37.7363 14.6288C37.7733 14.7355 37.8427 14.8281 37.9347 14.8936C38.0268 14.9592 38.137 14.9944 38.25 14.9944C38.363 14.9944 38.4732 14.9592 38.5653 14.8936C38.6574 14.8281 38.7268 14.7355 38.7638 14.6288L39.7313 11.7263C39.944 11.0868 40.3028 10.5058 40.7793 10.0293C41.2558 9.55281 41.8369 9.19396 42.4763 8.98125L45.3788 8.01375C45.4855 7.97673 45.5781 7.90736 45.6437 7.81529C45.7092 7.72321 45.7444 7.61301 45.7444 7.5C45.7444 7.38699 45.7092 7.27679 45.6437 7.18471C45.5781 7.09264 45.4855 7.02327 45.3788 6.98625L42.4763 6.01875C41.1788 5.5875 40.1625 4.57125 39.7313 3.27375L38.7638 0.37125C38.7268 0.264474 38.6574 0.171885 38.5653 0.106356C38.4732 0.0408274 38.363 0.00561523 38.25 0.00561523C38.137 0.00561523 38.0268 0.0408274 37.9347 0.106356Z" fill="#202E99"/>
</svg>
